<svg id="Layer_1" data-name="Layer 1" xmlns="http://www.w3.org/2000/svg" viewBox="0 0 1263 732"><defs><style>.cls-1{opacity:0.5;}.cls-2{fill:#b4d2f8;}</style></defs><title>img</title><g class="cls-1"><path class="cls-2" d="M105,222.59v5.14a1.67,1.67,0,0,1-1.66,1.66h-1.8a1.66,1.66,0,0,1-1.66-1.66v-5.14h-5a1.66,1.66,0,0,1-1.66-1.66v-1.8a1.66,1.66,0,0,1,1.66-1.66h5v-5.14a1.66,1.66,0,0,1,1.66-1.66h1.8a1.67,1.67,0,0,1,1.66,1.66v5.14h5a1.66,1.66,0,0,1,1.66,1.66v1.8a1.66,1.66,0,0,1-1.66,1.66Z"/><path class="cls-2" d="M124.06,352.83V358a1.66,1.66,0,0,1-1.66,1.66h-1.8a1.66,1.66,0,0,1-1.66-1.66v-5.14h-5a1.66,1.66,0,0,1-1.66-1.66v-1.8a1.65,1.65,0,0,1,1.66-1.65h5v-5.14a1.66,1.66,0,0,1,1.66-1.66h1.8a1.66,1.66,0,0,1,1.66,1.66v5.14h5a1.66,1.66,0,0,1,1.66,1.65v1.8a1.66,1.66,0,0,1-1.66,1.66Z"/><path class="cls-2" d="M451.25,209.88V215a1.66,1.66,0,0,1-1.66,1.66h-1.8a1.66,1.66,0,0,1-1.66-1.66v-5.14h-5a1.66,1.66,0,0,1-1.66-1.66v-1.8a1.66,1.66,0,0,1,1.66-1.65h5v-5.14a1.66,1.66,0,0,1,1.66-1.66h1.8a1.66,1.66,0,0,1,1.66,1.66v5.14h5a1.65,1.65,0,0,1,1.66,1.65v1.8a1.66,1.66,0,0,1-1.66,1.66Z"/><path class="cls-2" d="M522.73,27.22v5.14A1.66,1.66,0,0,1,521.07,34h-1.8a1.66,1.66,0,0,1-1.66-1.66V27.22h-5a1.65,1.65,0,0,1-1.66-1.65v-1.8a1.66,1.66,0,0,1,1.66-1.66h5V17a1.66,1.66,0,0,1,1.66-1.66h1.8A1.66,1.66,0,0,1,522.73,17v5.14h5a1.66,1.66,0,0,1,1.66,1.66v1.8a1.66,1.66,0,0,1-1.66,1.65Z"/><path class="cls-2" d="M1002.4,222.59v5.14a1.66,1.66,0,0,1-1.66,1.66H999a1.66,1.66,0,0,1-1.66-1.66v-5.14h-5a1.66,1.66,0,0,1-1.66-1.66v-1.8a1.66,1.66,0,0,1,1.66-1.66h5v-5.14a1.66,1.66,0,0,1,1.66-1.66h1.79a1.66,1.66,0,0,1,1.66,1.66v5.14h5a1.66,1.66,0,0,1,1.66,1.66v1.8a1.66,1.66,0,0,1-1.66,1.66Z"/><path class="cls-2" d="M856.28,151.11v5.14a1.66,1.66,0,0,1-1.66,1.66h-1.8a1.66,1.66,0,0,1-1.66-1.66v-5.14h-5a1.65,1.65,0,0,1-1.66-1.65v-1.8a1.66,1.66,0,0,1,1.66-1.66h5v-5.14a1.66,1.66,0,0,1,1.66-1.66h1.8a1.66,1.66,0,0,1,1.66,1.66V146h5a1.66,1.66,0,0,1,1.66,1.66v1.8a1.66,1.66,0,0,1-1.66,1.65Z"/><path class="cls-2" d="M1021.46,349.66v5.13a1.66,1.66,0,0,1-1.66,1.66H1018a1.66,1.66,0,0,1-1.66-1.66v-5.13h-5a1.66,1.66,0,0,1-1.66-1.66v-1.8a1.66,1.66,0,0,1,1.66-1.66h5V339.4a1.66,1.66,0,0,1,1.66-1.66h1.79a1.66,1.66,0,0,1,1.66,1.66v5.14h5a1.66,1.66,0,0,1,1.66,1.66V348a1.66,1.66,0,0,1-1.66,1.66Z"/><path class="cls-2" d="M862.63,533.9V539A1.66,1.66,0,0,1,861,540.7h-1.8a1.66,1.66,0,0,1-1.66-1.66V533.9h-5a1.66,1.66,0,0,1-1.66-1.66v-1.8a1.66,1.66,0,0,1,1.66-1.65h5v-5.14a1.66,1.66,0,0,1,1.66-1.66H861a1.66,1.66,0,0,1,1.66,1.66v5.14h5a1.65,1.65,0,0,1,1.66,1.65v1.8a1.66,1.66,0,0,1-1.66,1.66Z"/><path class="cls-2" d="M664.09,626v5.13a1.66,1.66,0,0,1-1.66,1.66h-1.8a1.66,1.66,0,0,1-1.66-1.66V626h-5a1.66,1.66,0,0,1-1.66-1.66v-1.8a1.66,1.66,0,0,1,1.66-1.66h5v-5.14a1.66,1.66,0,0,1,1.66-1.66h1.8a1.66,1.66,0,0,1,1.66,1.66v5.14h5a1.66,1.66,0,0,1,1.66,1.66v1.8a1.66,1.66,0,0,1-1.66,1.66Z"/><path class="cls-2" d="M381.37,610.14v5.14a1.66,1.66,0,0,1-1.66,1.66h-1.8a1.66,1.66,0,0,1-1.66-1.66v-5.14h-5a1.66,1.66,0,0,1-1.66-1.66v-1.8a1.65,1.65,0,0,1,1.66-1.65h5v-5.14a1.66,1.66,0,0,1,1.66-1.66h1.8a1.66,1.66,0,0,1,1.66,1.66V605h5a1.66,1.66,0,0,1,1.66,1.65v1.8a1.66,1.66,0,0,1-1.66,1.66Z"/><path class="cls-2" d="M867.4,683.21v5.13a1.66,1.66,0,0,1-1.66,1.66h-1.8a1.66,1.66,0,0,1-1.66-1.66v-5.13h-5a1.66,1.66,0,0,1-1.66-1.66v-1.8a1.66,1.66,0,0,1,1.66-1.66h5V673a1.66,1.66,0,0,1,1.66-1.66h1.8A1.66,1.66,0,0,1,867.4,673v5.14h5a1.66,1.66,0,0,1,1.66,1.66v1.8a1.67,1.67,0,0,1-1.66,1.66Z"/><circle class="cls-2" cx="1245.83" cy="33.58" r="3.97"/><circle class="cls-2" cx="1182.29" cy="41.52" r="3.97"/><circle class="cls-2" cx="1220.41" cy="178.11" r="3.97"/><circle class="cls-2" cx="1053.64" cy="133.64" r="3.97"/><circle class="cls-2" cx="1063.17" cy="33.58" r="3.97"/><circle class="cls-2" cx="950.4" cy="14.52" r="3.97"/><circle class="cls-2" cx="885.28" cy="49.46" r="3.97"/><circle class="cls-2" cx="934.51" cy="103.46" r="3.97"/><circle class="cls-2" cx="1009.17" cy="71.7" r="3.97"/><circle class="cls-2" cx="880.51" cy="254.35" r="3.97"/><circle class="cls-2" cx="1028.23" cy="281.36" r="3.97"/><circle class="cls-2" cx="1071.11" cy="365.54" r="3.97"/><circle class="cls-2" cx="1012.34" cy="419.54" r="3.97"/><circle class="cls-2" cx="1128.29" cy="502.13" r="3.97"/><circle class="cls-2" cx="1018.7" cy="608.55" r="3.97"/><circle class="cls-2" cx="745.5" cy="660.97" r="3.97"/><circle class="cls-2" cx="704.21" cy="600.61" r="3.97"/><circle class="cls-2" cx="470.72" cy="576.79" r="3.97"/><circle class="cls-2" cx="607.32" cy="476.6" r="3.97"/><circle class="cls-2" cx="421.48" cy="470.37" r="3.97"/><circle class="cls-2" cx="459.6" cy="654.61" r="3.97"/><circle class="cls-2" cx="602.55" cy="378.24" r="3.97"/><circle class="cls-2" cx="521.55" cy="351.24" r="3.97"/><circle class="cls-2" cx="486.6" cy="470.37" r="3.97"/><circle class="cls-2" cx="1147.35" cy="643.5" r="3.97"/><circle class="cls-2" cx="1085.41" cy="576.79" r="3.97"/><circle class="cls-2" cx="1056.82" cy="657.79" r="3.97"/><circle class="cls-2" cx="904.34" cy="578.37" r="3.97"/><circle class="cls-2" cx="985.34" cy="522.78" r="3.97"/><circle class="cls-2" cx="1242.65" cy="514.84" r="3.97"/><circle class="cls-2" cx="843.98" cy="481.49" r="3.97"/><circle class="cls-2" cx="794.74" cy="608.55" r="3.97"/><circle class="cls-2" cx="904.34" cy="471.96" r="3.97"/><circle class="cls-2" cx="840.8" cy="370.3" r="3.97"/><circle class="cls-2" cx="795.04" cy="456.54" r="3.97"/><circle class="cls-2" cx="934.51" cy="219.41" r="3.97"/><circle class="cls-2" cx="1123.53" cy="333.77" r="3.97"/><circle class="cls-2" cx="1190.24" cy="309.95" r="3.97"/><circle class="cls-2" cx="1107.64" cy="395.72" r="3.97"/><circle class="cls-2" cx="1077.46" cy="468.78" r="3.97"/><circle class="cls-2" cx="1250.59" cy="456.07" r="3.97"/><circle class="cls-2" cx="1074.29" cy="151.11" r="3.97"/><circle class="cls-2" cx="1101.29" cy="259.12" r="3.97"/><circle class="cls-2" cx="1144.17" cy="160.64" r="3.97"/><circle class="cls-2" cx="1239.47" cy="112.99" r="3.97"/><circle class="cls-2" cx="1198.18" cy="257.53" r="3.97"/><circle class="cls-2" cx="1242.65" cy="289.3" r="3.97"/><circle class="cls-2" cx="1193.41" cy="403.66" r="3.97"/><circle class="cls-2" cx="810.62" cy="39.93" r="3.97"/><circle class="cls-2" cx="759.8" cy="9.75" r="3.97"/><circle class="cls-2" cx="697.85" cy="51.05" r="3.97"/><circle class="cls-2" cx="753.44" cy="76.46" r="3.97"/><circle class="cls-2" cx="782.03" cy="106.64" r="3.97"/><circle class="cls-2" cx="713.74" cy="117.76" r="3.97"/><circle class="cls-2" cx="651.79" cy="133.64" r="3.97"/><circle class="cls-2" cx="707.38" cy="179.7" r="3.97"/><circle class="cls-2" cx="607.32" cy="168.58" r="3.97"/><circle class="cls-2" cx="569.2" cy="24.05" r="3.97"/><circle class="cls-2" cx="588.26" cy="122.52" r="3.97"/><circle class="cls-2" cx="564.43" cy="152.7" r="3.97"/><circle class="cls-2" cx="539.02" cy="211.47" r="3.97"/><circle class="cls-2" cx="419.89" cy="8.16" r="3.97"/><circle class="cls-2" cx="348.42" cy="33.58" r="3.97"/><circle class="cls-2" cx="464.37" cy="122.52" r="3.97"/><circle class="cls-2" cx="176.88" cy="152.7" r="3.97"/><circle class="cls-2" cx="191.17" cy="79.64" r="3.97"/><circle class="cls-2" cx="133.99" cy="279.77" r="3.97"/><circle class="cls-2" cx="22.81" cy="314.71" r="3.97"/><circle class="cls-2" cx="37.11" cy="219.41" r="3.97"/><circle class="cls-2" cx="245.18" cy="165.41" r="3.97"/><circle class="cls-2" cx="369.07" cy="97.11" r="3.97"/><circle class="cls-2" cx="324.59" cy="179.7" r="3.97"/><circle class="cls-2" cx="302.36" cy="257.53" r="3.97"/><circle class="cls-2" cx="297.59" cy="309.95" r="3.97"/><circle class="cls-2" cx="221.35" cy="252.77" r="3.97"/><circle class="cls-2" cx="226.12" cy="333.77" r="3.97"/><circle class="cls-2" cx="210.23" cy="394.13" r="3.97"/><circle class="cls-2" cx="230.88" cy="498.96" r="3.97"/><circle class="cls-2" cx="278.53" cy="632.38" r="3.97"/><circle class="cls-2" cx="191.17" cy="576.79" r="3.97"/><circle class="cls-2" cx="162.58" cy="656.2" r="3.97"/><circle class="cls-2" cx="208.65" cy="699.09" r="3.97"/><circle class="cls-2" cx="345.24" cy="516.43" r="3.97"/><circle class="cls-2" cx="183.23" cy="467.19" r="3.97"/><circle class="cls-2" cx="121.29" cy="606.96" r="3.97"/><circle class="cls-2" cx="8.52" cy="470.37" r="3.97"/><circle class="cls-2" cx="8.52" cy="579.96" r="3.97"/><circle class="cls-2" cx="22.81" cy="707.03" r="3.97"/><circle class="cls-2" cx="353.18" cy="456.07" r="3.97"/><circle class="cls-2" cx="173.7" cy="367.13" r="3.97"/><circle class="cls-2" cx="116.52" cy="421.13" r="3.97"/><circle class="cls-2" cx="86.34" cy="486.25" r="3.97"/><circle class="cls-2" cx="375.42" cy="206.7" r="3.97"/><circle class="cls-2" cx="392.89" cy="329.01" r="3.97"/><circle class="cls-2" cx="307.12" cy="383.01" r="3.97"/><circle class="cls-2" cx="281.71" cy="41.52" r="3.97"/><circle class="cls-2" cx="156.23" cy="130.46" r="3.97"/><circle class="cls-2" cx="121.29" cy="28.81" r="3.97"/><circle class="cls-2" cx="37.11" cy="101.87" r="3.97"/><circle class="cls-2" cx="54.58" cy="16.1" r="3.97"/><circle class="cls-2" cx="265.83" cy="101.87" r="5.56"/><circle class="cls-2" cx="405.6" cy="263.88" r="5.56"/><circle class="cls-2" cx="405.6" cy="535.49" r="5.56"/><circle class="cls-2" cx="524.72" cy="638.73" r="5.56"/><circle class="cls-2" cx="421.48" cy="651.44" r="5.56"/><circle class="cls-2" cx="278.53" cy="540.25" r="5.56"/><circle class="cls-2" cx="57.75" cy="416.36" r="5.56"/><circle class="cls-2" cx="64.11" cy="619.67" r="5.56"/><circle class="cls-2" cx="507.25" cy="248" r="5.56"/><circle class="cls-2" cx="92.7" cy="152.7" r="5.56"/><circle class="cls-2" cx="1161.65" cy="103.46" r="5.56"/><circle class="cls-2" cx="990.11" cy="151.11" r="5.56"/><circle class="cls-2" cx="654.97" cy="240.06" r="5.56"/><circle class="cls-2" cx="815.39" cy="240.06" r="5.56"/><circle class="cls-2" cx="959.93" cy="618.08" r="5.56"/><circle class="cls-2" cx="1174.35" cy="543.43" r="5.56"/></g></svg>