<svg id="Layer_1" data-name="Layer 1" xmlns="http://www.w3.org/2000/svg" xmlns:xlink="http://www.w3.org/1999/xlink" viewBox="0 0 564 171"><defs><style>.cls-1{fill:none;}.cls-2{fill:#36c8e3;}.cls-3{clip-path:url(#clip-path);}.cls-4{fill:#30ddf4;}</style><clipPath id="clip-path"><ellipse class="cls-1" cx="402.29" cy="115" rx="230.27" ry="184.35" transform="translate(-15.98 104.41) rotate(-14.5)"/></clipPath></defs><title>img</title><path class="cls-2" d="M408.75,151.09c-10.08-7-9.8-24.7-9.8-24.7l33-38.55h0l1-1.2.14-.17L404,46.53s-1-16.42,9.78-24.78l46.55,60.64h99.82S512,17.68,507.29,10.6a18.87,18.87,0,0,0-16.15-8.5H319.85l.34,16.28L291.1,2.1H200l1.23,17.77L184,2.1H169.76c-2.89-.44-7.07,5.24-7.07,5.24L125,61,2.87,72.11v9.62H234.29l46.76-60.24s12.13,7.1,12.1,24.07L261.5,86.45l32,38.21s-1.3,14.88-12.61,21L234.29,93.87H35.9l1.39,6.39L129.57,106c-3.84,1-32.77,17.84-32.77,17.84l6.3,3.28c-.28-.27,30.57-8.33,34.73-9.82l27.48,43.11a9.11,9.11,0,0,0,8.25,5.12c6.16.11,20.65,0,20.65,0l-2.85-18.07,16.48,18.07h5l-1.34-18.3L238,165.56H446.34l0-11.63,20.38,11.63h23.44a15,15,0,0,0,13.2-5.91c5.32-7,56.81-65,56.81-65H460.33Zm-87.16,4.44-11.53,0,49.8-129.95a13.91,13.91,0,0,1,13.61-9.12l11.51,0L335.73,145.86A15.32,15.32,0,0,1,321.59,155.53Z"/><g class="cls-3"><path class="cls-4" d="M408.75,151.09c-10.08-7-9.8-24.7-9.8-24.7l33-38.55h0l1-1.2.14-.17L404,46.53s-1-16.42,9.78-24.78l46.55,60.64h99.82S512,17.68,507.29,10.6a18.87,18.87,0,0,0-16.15-8.5H319.85l.34,16.28L291.1,2.1H200l1.23,17.77L184,2.1H169.76c-2.89-.44-7.07,5.24-7.07,5.24L125,61,2.87,72.11v9.62H234.29l46.76-60.24s12.13,7.1,12.1,24.07L261.5,86.45l32,38.21s-1.3,14.88-12.61,21L234.29,93.87H35.9l1.39,6.39L129.57,106c-3.84,1-32.77,17.84-32.77,17.84l6.3,3.28c-.28-.27,30.57-8.33,34.73-9.82l27.48,43.11a9.11,9.11,0,0,0,8.25,5.12c6.16.11,20.65,0,20.65,0l-2.85-18.07,16.48,18.07h5l-1.34-18.3L238,165.56H446.34l0-11.63,20.38,11.63h23.44a15,15,0,0,0,13.2-5.91c5.32-7,56.81-65,56.81-65H460.33Zm-87.16,4.44-11.53,0,49.8-129.95a13.91,13.91,0,0,1,13.61-9.12l11.51,0L335.73,145.86A15.32,15.32,0,0,1,321.59,155.53Z"/></g></svg>